<?xml version="1.0" encoding="UTF-8"?>
<svg width="180px" height="38px" viewBox="0 0 180 38" version="1.1" xmlns="http://www.w3.org/2000/svg" xmlns:xlink="http://www.w3.org/1999/xlink">
    <!-- Generator: Sketch 60.1 (88133) - https://sketch.com -->
    <title>Group 18</title>
    <desc>Created with Sketch.</desc>
    <defs>
        <polygon id="path-1" points="0 37.9853277 179.928647 37.9853277 179.928647 -2.84217094e-14 0 -2.84217094e-14"></polygon>
    </defs>
    <g id="Symbols" stroke="none" stroke-width="1" fill="none" fill-rule="evenodd">
        <g id="Navigation/nav-1440-scuderia-v2" transform="translate(-53.000000, -19.000000)">
            <g id="Navigation/nav-1440-scuderia">
                <g id="Navigation/nav-1440">
                    <g id="NAV-BAR">
                        <g id="Group-18" transform="translate(53.000000, 19.000000)">
                            <path d="M6.54347569,4.17546723 C6.1728203,4.01658774 5.67449049,3.85942072 5.06218605,3.70815222 C4.56728118,3.58827907 4.17493446,3.46897674 3.89599154,3.35347992 C3.62161522,3.24007611 3.41098097,3.08880761 3.26960677,2.90367019 C3.12937421,2.72062579 3.05840169,2.47669345 3.05840169,2.17872304 C3.05840169,1.74166173 3.20890909,1.39345877 3.50611839,1.14381818 C3.80561099,0.891704017 4.23772516,0.763839323 4.79047357,0.763839323 C6.14675264,0.763839323 6.80605497,1.39726427 6.80605497,2.70026638 L6.80605497,2.7478351 L7.64935307,2.7478351 L7.64935307,2.70026638 C7.64935307,1.81434672 7.40599154,1.13525581 6.92592812,0.681830867 L6.92573784,0.681830867 C6.44624524,0.229357294 5.72776744,7.61099366e-05 4.79047357,7.61099366e-05 C4.26379281,7.61099366e-05 3.8010444,0.0931205074 3.41535729,0.276545455 C3.02681607,0.461112051 2.72637209,0.720837209 2.52277801,1.04830021 C2.31842283,1.37538266 2.21491332,1.75954757 2.21491332,2.18994926 C2.21491332,2.68904017 2.32279915,3.09318393 2.5357167,3.39096406 C2.74711205,3.68760254 3.03975476,3.91992812 3.40527273,4.08128118 C3.76432135,4.24035095 4.25313742,4.39751797 4.85802114,4.54859619 C5.38203805,4.68350106 5.79398309,4.81060465 6.08186892,4.92648203 C6.36404651,5.04026638 6.5826723,5.19191543 6.73165751,5.37686258 C6.87873996,5.5604778 6.95351797,5.81164059 6.95351797,6.12369133 C6.95351797,6.62011839 6.78569556,7.00808879 6.45518816,7.27694715 C6.12182664,7.54808879 5.63034672,7.68565751 4.9944482,7.68565751 C4.32943763,7.68565751 3.80656237,7.51269767 3.43990275,7.17134461 C3.07381395,6.83094292 2.88829598,6.29531924 2.88829598,5.57931501 L2.88829598,5.5317463 L2.0562241,5.5317463 L2.0562241,5.57931501 C2.0562241,6.51052008 2.31461734,7.23166173 2.82474419,7.72219027 C3.33410994,8.21252854 4.06400423,8.46121776 4.9944482,8.46121776 C5.84821142,8.46121776 6.53548414,8.24772939 7.0372389,7.82646089 C7.54108668,7.40347992 7.79662579,6.82675687 7.79662579,6.11246512 C7.79662579,5.59815222 7.68112896,5.18240169 7.45298943,4.87643975 C7.22580127,4.5727611 6.91983932,4.3368203 6.54347569,4.17546723" id="Fill-1" fill="#FEFEFE"></path>
                            <path d="M31.7645581,5.51648626 C31.6758901,6.17445666 31.4140719,6.70456237 30.9865243,7.0915814 C30.5589767,7.47841015 30.0165032,7.67439323 29.3745159,7.67439323 C28.8426977,7.67439323 28.3750021,7.53606342 27.9847484,7.26339958 C27.5939239,6.99073573 27.288723,6.59172939 27.0778985,6.07741649 C26.8657421,5.56024947 26.7580465,4.93881184 26.7580465,4.23060888 C26.7580465,3.52259619 26.8657421,2.90115856 27.0778985,2.38380127 C27.288723,1.86967865 27.5956364,1.47048203 27.9902664,1.19743763 C28.3847061,0.924773784 28.8581099,0.786634249 29.3973488,0.786634249 C30.0465666,0.786634249 30.5869471,0.978811839 31.0032685,1.3580296 C31.4192093,1.73724736 31.6600973,2.25517548 31.7190825,2.89735307 L31.7230782,2.94054545 L32.5876871,2.94054545 L32.584833,2.8903129 C32.5541987,2.3411797 32.406926,1.84189852 32.1473911,1.40635941 C31.8869049,0.969678647 31.5162495,0.622236786 31.0462706,0.373928118 C30.5761015,0.125809725 30.02126,3.80549683e-05 29.3973488,3.80549683e-05 C28.6811543,3.80549683e-05 28.0507738,0.172236786 27.5235222,0.511877378 C26.9966512,0.852088795 26.5864186,1.34547146 26.304241,1.97794503 C26.0232051,2.60889641 25.8806892,3.36695137 25.8806892,4.23060888 C25.8806892,5.09445666 26.0232051,5.85232135 26.304241,6.48308245 C26.5866089,7.11631712 26.9949387,7.60950951 27.517814,7.94876956 C28.0408795,8.2887907 28.6655518,8.4611797 29.3745159,8.4611797 C29.9837759,8.4611797 30.5306258,8.33921353 31.0000338,8.09870613 C31.470203,7.85819873 31.8484693,7.51284989 32.1243679,7.07274419 C32.3987442,6.63435095 32.5690402,6.11452008 32.6299281,5.52771247 L32.6354461,5.47519662 L31.7700761,5.47519662 L31.7645581,5.51648626 Z" id="Fill-3" fill="#FEFEFE"></path>
                            <path d="M55.6852072,5.26220296 C55.6852072,6.06249894 55.5004503,6.67137844 55.1362643,7.07209725 C54.773981,7.47167442 54.2539598,7.67431712 53.5902812,7.67431712 C52.9193721,7.67431712 52.3953552,7.47167442 52.0326913,7.07209725 C51.6686956,6.67137844 51.484129,6.06249894 51.484129,5.26220296 L51.484129,0.147424947 L50.6520571,0.147424947 L50.6520571,5.27361945 C50.6520571,6.30129387 50.906074,7.09778436 51.4072579,7.64082875 C51.909203,8.18520507 52.6436638,8.46110359 53.5902812,8.46110359 C54.5367082,8.46110359 55.2692664,8.18710782 55.7677865,7.646537 C56.2649746,7.10710782 56.5170888,6.30871459 56.5170888,5.27361945 L56.5170888,0.147424947 L55.6852072,0.147424947 L55.6852072,5.26220296 Z" id="Fill-5" fill="#FEFEFE"></path>
                            <path d="M77.029611,7.54978224 L75.4560381,7.54978224 L75.4560381,0.911283298 L77.029611,0.911283298 C78.0844947,0.911283298 78.906482,1.20031078 79.4725497,1.77018393 C80.0388076,2.34024736 80.3259323,3.16794292 80.3259323,4.23062791 C80.3259323,5.29312262 80.0388076,6.12100846 79.4725497,6.69107188 C78.9068626,7.26075476 78.0848753,7.54978224 77.029611,7.54978224 M77.029611,0.147520085 L74.6239662,0.147520085 L74.6239662,8.31373573 L77.029611,8.31373573 C78.35126,8.31373573 79.3882579,7.95639958 80.1120634,7.25162156 C80.8360592,6.54684355 81.2032896,5.53020507 81.2032896,4.23062791 C81.2032896,2.93124101 80.8360592,1.91460254 80.1120634,1.20944397 C79.3882579,0.504856237 78.35126,0.147520085 77.029611,0.147520085" id="Fill-7" fill="#FEFEFE"></path>
                            <polygon id="Fill-9" fill="#FEFEFE" points="100.448201 4.50483298 104.517799 4.50483298 104.517799 3.74087949 100.448201 3.74087949 100.448201 0.911302326 104.73319 0.911302326 104.73319 0.147539112 99.616129 0.147539112 99.616129 8.31375476 104.869237 8.31375476 104.869237 7.54980127 100.448201 7.54980127"></polygon>
                            <path d="M128.08859,2.3827167 C128.08859,2.8652537 127.927808,3.2577907 127.611,3.54948203 C127.29267,3.84193446 126.809562,3.99034884 126.174996,3.99034884 L124.544911,3.99034884 L124.544911,0.911321353 L126.118484,0.911321353 C127.444129,0.911321353 128.08859,1.39252643 128.08859,2.3827167 M128.054721,4.81918605 C127.909161,4.63290698 127.710133,4.49077167 127.462395,4.39563425 C127.885186,4.28204017 128.234721,4.05180761 128.502628,3.710074 C128.79508,3.33656448 128.943304,2.87857294 128.943304,2.34884778 C128.943304,1.64197674 128.706793,1.0917019 128.240049,0.713245243 C127.775397,0.337832981 127.065672,0.147367865 126.129901,0.147367865 L123.712839,0.147367865 L123.712839,8.31377378 L124.544911,8.31377378 L124.544911,4.75411205 L126.16377,4.75411205 C126.603495,4.75411205 126.940662,4.8460148 127.165376,5.0267759 C127.391803,5.20963002 127.592734,5.54965116 127.762649,6.03694503 L128.544298,8.31377378 L129.450767,8.31377378 L128.577786,5.8919556 C128.395503,5.39115222 128.219499,5.03020085 128.054721,4.81918605" id="Fill-11" fill="#FEFEFE"></path>
                            <mask id="mask-2" fill="white">
                                <use xlink:href="#path-1"></use>
                            </mask>
                            <g id="Clip-14"></g>
                            <polygon id="Fill-13" fill="#FEFEFE" mask="url(#mask-2)" points="150.484757 8.31367865 151.317019 8.31367865 151.317019 0.147463002 150.484757 0.147463002"></polygon>
                            <path d="M175.230114,0.898325581 L176.489163,4.15659197 L176.782186,4.93101057 L173.667387,4.93101057 L173.970875,4.15697252 C174.352757,3.18695137 174.741679,2.18001691 175.126985,1.16413953 L175.230114,0.898325581 Z M175.772588,0.147501057 L174.698867,0.147501057 L171.464385,8.3137167 L172.360579,8.3137167 L173.369607,5.70657082 L177.090622,5.70657082 L178.087852,8.283463 L178.099649,8.3137167 L178.995273,8.3137167 L175.772588,0.147501057 Z" id="Fill-15" fill="#FEFEFE" mask="url(#mask-2)"></path>
                            <path d="M21.7337822,35.6660486 C21.854797,35.7946744 22.0020698,35.8344419 22.1693214,35.7745053 L22.1693214,37.9853087 C22.1693214,37.9853087 22.1693214,37.9813129 21.910167,37.9813129 C19.9535708,37.9379302 18.143296,37.2902347 16.6614355,36.2155624 C17.4668689,35.4645476 18.3586871,34.2850338 18.8853679,33.1291142 C19.2204419,33.1386279 19.6367632,33.1336808 20.1969323,33.0682262 C20.4836765,33.0349281 20.6530211,33.0328351 20.940907,33.0217992 C21.0573552,33.0172326 21.2655159,32.9487336 21.2346913,32.7323911 C21.2166152,32.6043362 21.1465941,32.4264292 21.0919852,32.2879091 C21.0286237,32.1250338 21.2388774,32.0333214 21.3193636,32.1604249 C21.3673129,32.2350127 21.4696808,32.4778034 21.5048816,32.5588605 C21.5720486,32.7131734 21.7549027,32.8973594 21.8884757,32.9949704 C22.0024503,33.0783108 22.1249873,33.1431945 22.2585603,33.1911438 C22.526277,33.2883742 22.7605053,33.4421163 22.965241,33.6386702 C23.0293636,33.6997484 23.085685,33.769389 23.139723,33.8394101 C23.3235285,34.0806786 23.3749027,34.2003615 23.1201247,34.4899598 C22.8900825,34.7512072 22.6094271,34.9100867 22.2665518,34.9578457 C22.0366998,34.9896216 21.8593636,34.9150338 21.760611,34.6927928 C21.7429154,34.6518837 21.7206533,34.6136385 21.6989619,34.5748224 C21.6551987,34.4981416 21.6133383,34.4189873 21.5644376,34.3455412 C21.4938457,34.2389873 21.395093,34.1811438 21.262852,34.2007421 C21.0514567,34.2330888 20.8396808,34.2658161 20.6299979,34.3065349 C20.5936554,34.3131945 20.5068901,34.3712283 20.5301036,34.3893044 C20.642556,34.5843362 20.7649027,34.7591987 20.9081797,34.9196004 C20.9766786,34.9957104 21.057926,35.0324334 21.1627674,35.0274863 C21.3694059,35.0193044 21.3764461,35.0274863 21.4611184,35.2133848 C21.5014567,35.3007209 21.5402727,35.3888182 21.5886025,35.4715877 C21.6295116,35.5410381 21.678222,35.6076342 21.7337822,35.6660486 L21.7337822,35.6660486 Z M22.5064884,33.8513975 C22.317926,33.8580571 22.1335497,33.8938288 21.9404207,33.939685 C21.946129,34.1090296 22.0060655,34.2507844 22.0705687,34.3898753 C22.1265095,34.5118414 22.1839725,34.5451395 22.3160233,34.5280148 C22.3875666,34.5183108 22.4617738,34.4971903 22.5241839,34.4629408 C22.6522389,34.391778 22.6980951,34.2661966 22.6653679,34.1227294 C22.6431057,34.02626 22.5957273,33.9446321 22.5064884,33.8513975 L22.5064884,33.8513975 Z M27.8950719,31.0916512 C27.8431268,30.9308689 27.7502727,30.8018626 27.6163192,30.7010169 C27.5042474,30.6169154 27.3917949,30.5322431 27.2759175,30.4540402 C27.2275877,30.4213129 27.1701247,30.4020951 27.1157061,30.3805941 C27.0441628,30.3516723 26.9840359,30.3748858 26.9393214,30.4329197 C26.8989831,30.4852452 26.8651142,30.5432791 26.8247759,30.5961755 C26.7745433,30.6622008 26.7058541,30.6798964 26.6272706,30.6566829 C26.5551564,30.6349915 26.5180529,30.5790507 26.5148182,30.4848647 C26.513296,30.4479514 26.513296,30.4097061 26.5220486,30.374315 C26.5844588,30.1282896 26.6862558,29.9005307 26.8430423,29.6990296 C26.865685,29.6706786 26.8938457,29.6449915 26.9227674,29.6229197 C26.9981163,29.5648858 27.0702304,29.5673594 27.1438668,29.6263446 C27.4096808,29.8940613 27.6349662,30.1067886 27.8768055,30.3027717 C28.1369112,30.5139767 28.208074,30.8159429 28.2527886,31.1224757 C28.2453679,31.1658584 28.2432748,31.2035328 28.2307167,31.2374017 C28.2111184,31.2893467 28.1717315,31.3211226 28.1136977,31.3251184 C28.0604207,31.3291142 28.0063827,31.3235962 27.9776512,31.2720317 C27.9454947,31.2145687 27.915241,31.1542516 27.8950719,31.0916512 L27.8950719,31.0916512 Z M27.3546913,32.5282262 C27.4559175,32.5000655 27.5246068,32.5565772 27.5390677,32.6608478 C27.5447759,32.7048013 27.5451564,32.748945 27.5466816,32.769685 C27.5472495,33.062518 27.4646702,33.2027505 27.1166575,33.2284376 C26.970907,33.2189239 26.9280951,33.18163 26.9149662,33.1064715 C26.8824292,32.9158161 26.9387505,32.7535116 27.0945856,32.6412495 C27.1695539,32.5868309 27.26374,32.5539133 27.3546913,32.5282262 L27.3546913,32.5282262 Z M37.5694059,19.3509323 L35.4035074,25.3639979 L32.638814,25.3639979 L32.638814,28.6681205 C32.6357696,28.7567886 32.6397653,28.8450761 32.638814,28.9348858 C32.6045645,33.8635751 28.6434228,37.8591564 23.7501247,37.9792199 L23.2932748,37.9853087 L23.2932748,35.2430677 L23.4607167,35.1705729 C23.5998076,35.1121586 23.7183488,35.0299598 23.7969323,34.8954355 C23.8831268,34.747592 24.012704,34.6876554 24.1854736,34.6891776 C24.4238879,34.6908901 24.4684123,34.6463658 24.5140782,34.4205095 C24.5565095,34.1729619 24.5882854,33.9684165 24.6307167,33.7663446 C24.671055,33.5756892 24.6497442,33.3977822 24.5454736,33.2333848 C24.3590042,32.9405518 24.1740571,32.6473383 23.9784545,32.3600233 C23.8443108,32.1638499 23.7737188,32.1537653 23.5902939,32.3191142 L23.7586871,32.6309746 C23.8928309,32.8170634 24.027926,33.0020106 24.1569323,33.1911438 C24.1976512,33.2510803 24.2355159,33.3211015 24.2471226,33.3907421 C24.2948816,33.6835751 24.2516892,33.9653721 24.1095539,34.2273805 C24.0918584,34.2602981 24.0463827,34.2774228 24.0056638,34.3076765 C23.9824503,34.2602981 23.9582854,34.2294736 23.9521966,34.1948436 C23.9405899,34.1295793 23.9335497,34.0631734 23.9339302,33.9965772 C23.9339302,33.7505518 23.8559175,33.537444 23.7006533,33.3433636 C23.5111395,33.1074228 23.3341839,32.8604461 23.156277,32.6149915 C22.9833171,32.3775285 23.0055793,32.1271268 23.2162135,31.9178245 C23.3050719,31.829537 23.3998288,31.7469577 23.4930634,31.6619049 C23.6214989,31.5452664 23.7173975,31.4056047 23.775241,31.2433002 C23.8207167,31.1188605 23.8629577,30.9919471 23.8916892,30.86237 C23.9632326,30.5438499 23.9818795,30.219241 23.9778837,29.8931099 L23.9805476,29.6489873 C23.9809281,29.587148 24.0020486,29.5336808 24.0458118,29.4893467 C24.1150719,29.4187548 24.2223869,29.4242727 24.2743319,29.5074228 C24.3049662,29.5563235 24.3297019,29.6128351 24.34226,29.6691564 C24.4054313,29.9519049 24.441203,30.2373171 24.4088562,30.5271057 C24.3690888,30.8886279 24.2948816,31.2419683 24.1854736,31.5880782 C24.1637822,31.6556258 24.1266786,31.7212706 24.142852,31.8099387 C24.1991734,31.8099387 24.250167,31.8148858 24.300019,31.8095581 C24.4023869,31.7968097 24.5041839,31.77626 24.6069323,31.7640825 C24.9568478,31.7248858 25.2601459,31.5932156 25.5061712,31.3340613 C25.6182431,31.2166617 25.7415412,31.1099175 25.8600825,30.9978457 C25.9065095,30.9540825 25.9584545,30.9329619 26.0214355,30.9596004 C26.0788985,30.9843362 26.1137188,31.0482685 26.0954524,31.1274228 C26.0752833,31.212666 26.050167,31.2998118 26.0117315,31.3785856 C25.9472283,31.5112072 25.8775877,31.6424968 25.7965307,31.7661755 C25.6256638,32.0262812 25.4820063,32.2998964 25.3725983,32.5913975 C25.3056216,32.7712072 25.2289408,32.947592 25.1659598,33.1291142 C25.1029789,33.3110169 25.1473129,33.3620106 25.3328309,33.3393679 C25.4789619,33.3211015 25.5193002,33.3524968 25.5293848,33.4980571 C25.533,33.5564715 25.5272918,33.6165983 25.5293848,33.6750127 C25.530907,33.7414186 25.5284334,33.8091564 25.5400402,33.8742304 C25.5864672,34.1387125 25.8762558,34.3086279 26.1272283,34.2144419 C26.2442474,34.1701078 26.3559387,34.1115032 26.4664884,34.052518 C26.5511607,34.0076131 26.6297442,33.9516723 26.7109915,33.9002981 C26.9398922,33.7556892 27.1878203,33.6649281 27.4578203,33.642666 C27.5679894,33.6331522 27.679871,33.6335328 27.7902304,33.637148 C27.9810761,33.6438076 28.1338668,33.5730254 28.2573552,33.4280359 C28.3245222,33.3494524 28.3934017,33.2712495 28.4706533,33.2031311 C28.6032748,33.085351 28.7010761,33.07774 28.8521543,33.1715455 C28.9716469,33.2449915 29.0850507,33.3287125 29.1999767,33.4088182 C29.3824503,33.5368732 29.5715835,33.6517992 29.7770803,33.7374228 C29.9631691,33.815055 30.1551564,33.8635751 30.3595116,33.8428351 C30.3850085,33.8397907 30.4091734,33.8262812 30.4561712,33.8101078 C30.4076512,33.7657738 30.3794905,33.7345687 30.3463827,33.7092622 C30.2525772,33.637148 30.1505899,33.5735962 30.063444,33.4950127 C29.9380529,33.3816089 29.8139937,33.2636385 29.7042051,33.135203 C29.5649239,32.9728985 29.4389619,32.7989873 29.3093848,32.6281205 C29.2342262,32.5278457 29.1565941,32.4279514 29.0926617,32.3206364 C29.0599345,32.2671691 29.0437611,32.1975285 29.0391945,32.1335962 C29.0321543,32.0449281 29.119871,31.9823277 29.2051142,32.0152452 C29.2654313,32.0376977 29.3259387,32.0730888 29.3738879,32.1164715 C29.5477992,32.2763023 29.718666,32.4405095 29.88763,32.6058584 C29.9934228,32.7091776 30.0900825,32.82163 30.1970169,32.9234271 C30.3210761,33.0413975 30.4565518,33.1431945 30.6230423,33.1957104 C30.8034228,33.2516512 30.9017949,33.2495581 31.1240359,33.1645053 C31.1487717,33.1336808 31.0100613,33.070129 31.0100613,33.070129 C30.5398922,32.8311438 30.1911184,32.5111015 29.885537,32.0816512 C29.6743319,31.785203 29.5044165,31.4661121 29.355241,31.1359852 C29.1803784,30.7518203 29.0538457,30.3503404 28.9117104,29.9536173 C28.7402727,29.4741247 28.5669323,28.9946321 28.3857907,28.5183742 C28.2668689,28.2044207 28.0794482,27.9296638 27.8682431,27.6705095 C27.5894905,27.3278245 27.2468055,27.0601078 26.8883277,26.8097061 C26.5239514,26.5551184 26.1321755,26.3479091 25.7442051,26.1330888 C25.0984123,25.7748013 24.4229366,25.4707421 23.8024503,25.0675497 C23.6951353,25.0051395 23.6452833,24.979833 23.5948605,24.9587125 C23.5716469,24.9495793 23.4873552,24.916852 23.3998288,24.8947801 L23.2932748,24.8751818 L23.2932748,19.3509323 L37.5694059,19.3509323 Z M23.4557696,26.8216934 C23.4108647,26.7849704 23.367482,26.7427294 23.3341839,26.695351 C23.2822389,26.6236173 23.2822389,26.5419894 23.3256216,26.4654989 C23.3695751,26.3891987 23.4390254,26.3505729 23.5267421,26.3519049 C23.5636554,26.3524757 23.6019006,26.3559006 23.6351987,26.3690296 C23.710167,26.3989027 23.78837,26.4261121 23.8553467,26.4694947 C24.1835708,26.680129 24.4471015,26.9548858 24.6388985,27.2945264 C24.7233805,27.4446533 24.768666,27.6115243 24.7698076,27.7431945 C24.7606744,27.8000867 24.7698076,27.8727717 24.6936977,27.9049281 C24.6392791,27.9281416 24.5812452,27.9049281 24.5323446,27.8227294 C24.326277,27.479093 24.0262135,27.2321163 23.7040782,27.00626 C23.6199767,26.946704 23.5364461,26.8861966 23.4557696,26.8216934 L23.4557696,26.8216934 Z M15.7172918,35.4325814 C15.5690677,35.572814 15.4168478,35.7084799 15.2596808,35.8384376 C15.1023235,35.969537 14.940019,36.0949281 14.7737188,36.2155624 C13.2387717,37.3280994 11.3535285,37.9853087 9.31777801,37.9853087 C4.17978647,37.9853087 1.90274841e-05,33.8055412 1.90274841e-05,28.6681205 C1.90274841e-05,23.530129 4.17978647,19.3509323 9.31777801,19.3509323 C11.3535285,19.3509323 13.2387717,20.0077611 14.7737188,21.1202981 C13.3512241,22.5049281 12.3168901,24.2862812 11.853,26.2839767 C11.217482,25.6079302 10.3161501,25.1851395 9.31777801,25.1851395 C7.39657294,25.1851395 5.83460677,26.7471057 5.83460677,28.6681205 C5.83460677,30.5885645 7.39657294,32.1507209 9.31777801,32.1507209 C10.3161501,32.1507209 11.217482,31.7273594 11.853,31.0518837 C12.0402304,30.8528562 12.2038668,30.6319471 12.341055,30.3931522 C12.6329366,29.8845476 12.8001882,29.2956469 12.8001882,28.6681205 C12.8001882,26.006556 13.9222389,23.602814 15.7172918,21.9030888 C15.8655159,21.7630465 16.0177357,21.6273805 16.1749027,21.4972326 C16.3328309,21.3663235 16.4951353,21.2407421 16.6614355,21.1202981 C18.1958118,20.0077611 20.0703996,19.3509323 22.1702727,19.3509323 L22.1693214,25.0519471 C22.1693214,25.0519471 22.1274609,25.0938076 22.0523023,25.1259641 C22.0195751,25.1396638 21.8587928,25.1921797 21.73226,25.20626 C20.8883911,25.2994947 20.1343319,25.6962178 19.5813932,26.2839767 C19.3945433,26.4835751 19.2307167,26.7042939 19.0935285,26.9427082 C18.8025983,27.4518837 18.6347759,28.0405941 18.6347759,28.6681205 C18.6347759,31.3291142 17.5127252,33.7334271 15.7172918,35.4325814 L15.7172918,35.4325814 Z" id="Fill-16" fill="#FEFEFE" mask="url(#mask-2)"></path>
                            <path d="M124.180706,20.5222833 L122.633011,24.817167 L118.670727,24.817167 L118.670727,36.785074 L114.362334,36.785074 L114.367852,24.817167 L110.403666,24.817167 L108.861108,20.5222833 L124.180706,20.5222833 Z M107.38115,31.6137844 L100.346309,31.6137844 L98.4865624,36.7869767 L97.222186,36.7869767 L103.065717,20.5222833 L103.862968,20.5222833 L104.661742,20.5222833 L110.505463,36.7869767 L109.240896,36.7869767 L107.38115,31.6137844 Z M103.862968,21.8249049 L100.763581,30.4485412 L106.962165,30.4485412 L103.862968,21.8249049 Z M162.470093,29.9956871 L165.596309,29.9956871 C166.314025,29.9956871 166.925569,29.7441438 167.435125,29.2376321 C167.939163,28.7320719 168.192989,28.1241438 168.192989,27.4117548 C168.192989,26.6965116 167.939163,26.0832558 167.435125,25.5767442 C166.925569,25.0711839 166.314025,24.817167 165.596309,24.817167 L162.470093,24.817167 L162.470093,29.9956871 Z M170.471721,22.5399577 C171.81392,23.8863425 172.48578,25.5090063 172.48578,27.4117548 C172.48578,29.5808879 171.644004,31.3561522 169.960452,32.7381184 L172.361721,36.785074 L167.365674,36.785074 L165.892186,34.2903805 L165.596309,34.3036998 L162.470093,34.3036998 L162.470093,36.785074 L158.1754,36.785074 L158.1754,20.5222833 L165.596309,20.5222833 C167.502672,20.5239958 169.124004,21.1962368 170.471721,22.5399577 L170.471721,22.5399577 Z M77.1173658,22.9840592 C76.2668372,22.1333404 75.2288879,21.7035095 74.0225455,21.7035095 L68.3234334,21.7035095 L68.3234334,30.4538689 L74.0225455,30.4538689 C75.2271755,30.4538689 76.2668372,30.0213742 77.1173658,29.1628541 C77.9678943,28.3121353 78.3977252,27.2770402 78.3977252,26.0786892 C78.3977252,24.8723467 77.9678943,23.8345877 77.1173658,22.9840592 L77.1173658,22.9840592 Z M77.9340254,22.1681607 C79.0147865,23.2397886 79.5622072,24.5576321 79.5622072,26.0786892 C79.5622072,27.5927061 79.0128837,28.9113108 77.9359281,29.9901691 C76.8614461,31.0699789 75.5436025,31.6191121 74.0225455,31.6191121 L68.3234334,31.6191121 L68.3234334,36.7869767 L67.1562875,36.7869767 L67.1562875,20.5302748 L74.0225455,20.5302748 C75.5455053,20.5302748 76.8633488,21.0885412 77.9340254,22.1681607 L77.9340254,22.1681607 Z M130.527133,26.0225581 L128.859945,30.9834038 L132.176816,30.9834038 L130.527133,26.0225581 Z M128.380072,20.5222833 L132.675907,20.5222833 L138.533899,36.785074 L134.209522,36.785074 L133.540706,34.9260888 L127.511848,34.9260888 L126.832567,36.785074 L122.520558,36.785074 L128.380072,20.5222833 Z M56.9999873,35.6198309 L65.147556,35.6198309 L65.147556,36.7869767 L55.8339831,36.7869767 L55.8339831,20.5186681 L56.9999873,20.5186681 L56.9999873,35.6198309 Z M93.6343636,20.5186681 L94.7988457,20.5186681 L94.7988457,36.7869767 L93.6343636,36.7869767 L93.6343636,31.6101691 L83.0973235,31.6101691 L83.0973235,36.7869767 L81.931129,36.7869767 L81.931129,20.5186681 L83.0973235,20.5186681 L83.0973235,30.4432135 L93.6343636,30.4432135 L93.6343636,20.5186681 Z M175.633877,36.7833615 L179.928571,36.7833615 L179.928571,20.5222833 L175.633877,20.5222833 L175.633877,36.7833615 Z M154.579966,20.5222833 L154.579966,29.512389 C154.579966,33.6459197 151.227514,36.9981818 147.09151,36.9981818 C142.957408,36.9981818 139.605526,33.6459197 139.605526,29.512389 L139.605526,20.5222833 L143.899649,20.5222833 L143.899649,29.512389 C143.899649,31.2741438 145.327662,32.7040592 147.09151,32.7040592 C148.855548,32.7040592 150.28337,31.2741438 150.28337,29.512389 L150.28337,20.5222833 L154.579966,20.5222833 Z M46.7002199,21.8249049 L43.600833,30.4485412 L49.7986554,30.4485412 L46.7002199,21.8249049 Z M50.2166892,31.6137844 L43.1810867,31.6137844 L41.3221015,36.7869767 L40.0567738,36.7869767 L45.9022072,20.5222833 L46.7002199,20.5222833 L47.4982326,20.5222833 L53.3408118,36.7869767 L52.0758647,36.7869767 L50.2166892,31.6137844 Z" id="Fill-17" fill="#FEFEFE" mask="url(#mask-2)"></path>
                        </g>
                    </g>
                </g>
            </g>
        </g>
    </g>
</svg>